<?xml version="1.0" encoding="utf-8"?>
<svg xmlns="http://www.w3.org/2000/svg" style="margin: auto; display: block; shape-rendering: auto;" width="280" height="250" preserveAspectRatio="xMidYMid">
<style type="text/css">
  text {
    text-anchor: middle; font-size: 80px; opacity: 0;
  }
</style>
<g style="transform-origin:140px 125px;transform:scale(1)">
<g transform="translate(140,125)">
  <g transform="translate(0,0)"><g class="path" style="transform: matrix(1, 0, 0, 1, 0, 0); transform-origin: -64.9762px -15.9424px; animation: 4.16667s linear -4.01786s infinite normal forwards running tremble-2e6f09e0-7814-436c-bf3e-9b68dd88d6de;"><path d="M24-56.56L24-56.56L24-56.56Q25.60-56.56 27.68-55.96L27.68-55.96L27.68-55.96Q29.76-55.36 31.04-54L31.04-54L31.04-54Q31.92-53.20 30.80-53.52L30.80-53.52L30.80-53.52Q29.68-53.68 28.52-54.04L28.52-54.04L28.52-54.04Q27.36-54.40 26-54.40L26-54.40L26-54.40Q21.04-54.48 18.80-51.56L18.80-51.56L18.80-51.56Q16.56-48.64 16.24-44.16L16.24-44.16L16.24-44.16Q16-41.04 16.36-37.96L16.36-37.96L16.36-37.96Q16.72-34.88 17.20-31.84L17.20-31.84L17.20-31.84Q17.68-28.80 18.04-25.76L18.04-25.76L18.04-25.76Q18.40-22.72 18.08-19.60L18.08-19.60L18.08-19.60Q18-18.72 17.88-18.56L17.88-18.56L17.88-18.56Q17.76-18.40 17.64-18.64L17.64-18.64L17.64-18.64Q17.52-18.88 17.40-19.32L17.40-19.32L17.40-19.32Q17.28-19.76 17.20-20.08L17.20-20.08L17.20-20.08Q16.72-23.28 16-26.52L16-26.52L16-26.52Q15.28-29.76 14.64-33.04L14.64-33.04L14.64-33.04Q14-36.32 13.64-39.60L13.64-39.60L13.64-39.60Q13.28-42.88 13.60-46.24L13.60-46.24L13.60-46.24Q13.84-48.40 14.64-50.28L14.64-50.28L14.64-50.28Q15.44-52.16 16.76-53.56L16.76-53.56L16.76-53.56Q18.08-54.96 19.92-55.76L19.92-55.76L19.92-55.76Q21.76-56.56 24-56.56" fill="#ffffff" stroke="none" stroke-width="none" transform="translate(-87.41448974609375,21.585558842250283)" style="fill: rgb(255, 255, 255);"></path></g><g class="path" style="transform: matrix(1, 0, 0, 1, 0, 0); transform-origin: -72.5455px -10.3854px; animation: 4.16667s linear -3.86905s infinite normal forwards running tremble-2e6f09e0-7814-436c-bf3e-9b68dd88d6de;"><path d="M9.76-46L9.76-46L9.76-46Q10-48.16 10.88-50.36L10.88-50.36L10.88-50.36Q11.76-52.56 13.24-54.36L13.24-54.36L13.24-54.36Q14.72-56.16 16.84-57.24L16.84-57.24L16.84-57.24Q18.96-58.32 21.60-58.32L21.60-58.32L21.60-58.32Q21.68-58.32 22.04-58.28L22.04-58.28L22.04-58.28Q22.40-58.24 22.68-58.16L22.68-58.16L22.68-58.16Q22.96-58.08 22.92-58L22.92-58L22.92-58Q22.88-57.92 22.32-57.84L22.32-57.84L22.32-57.84Q20.16-57.44 18.32-56.40L18.32-56.40L18.32-56.40Q16.48-55.36 15.12-53.84L15.12-53.84L15.12-53.84Q13.76-52.32 12.92-50.44L12.92-50.44L12.92-50.44Q12.08-48.56 11.92-46.56L11.92-46.56L11.92-46.56Q11.60-42.72 12.24-38.84L12.24-38.84L12.24-38.84Q12.88-34.96 13.72-31.12L13.72-31.12L13.72-31.12Q14.56-27.28 15.16-23.40L15.16-23.40L15.16-23.40Q15.76-19.52 15.44-15.68L15.44-15.68L15.44-15.68Q15.28-14.16 14.72-12.48L14.72-12.48L14.72-12.48Q14.16-10.80 13.24-9.36L13.24-9.36L13.24-9.36Q12.32-7.92 10.96-6.92L10.96-6.92L10.96-6.92Q9.60-5.92 7.92-5.68L7.92-5.68L7.92-5.68Q6.64-5.52 6.84-5.80L6.84-5.80L6.84-5.80Q7.04-6.08 7.76-6.48L7.76-6.48L7.76-6.48Q10.64-8.08 11.72-10.24L11.72-10.24L11.72-10.24Q12.80-12.40 13.12-15.60L13.12-15.60L13.12-15.60Q13.44-19.28 12.84-23.12L12.84-23.12L12.84-23.12Q12.24-26.96 11.44-30.80L11.44-30.80L11.44-30.80Q10.64-34.64 10.04-38.44L10.04-38.44L10.04-38.44Q9.44-42.24 9.76-46" fill="#ffffff" stroke="none" stroke-width="none" transform="translate(-87.41448974609375,21.585558842250283)" style="fill: rgb(255, 180, 6);"></path></g><g class="path" style="transform: matrix(1, 0, 0, 1, 0, 0); transform-origin: -71.4972px -5.05444px; animation: 4.16667s linear -3.72024s infinite normal forwards running tremble-2e6f09e0-7814-436c-bf3e-9b68dd88d6de;"><path d="M7.60-1.68L7.60-1.68L7.60-1.68Q10.96-1.68 13.28-2.92L13.28-2.92L13.28-2.92Q15.60-4.16 17.12-6.20L17.12-6.20L17.12-6.20Q18.64-8.24 19.44-10.92L19.44-10.92L19.44-10.92Q20.24-13.60 20.48-16.48L20.48-16.48L20.48-16.48Q20.80-20.08 20.32-23.68L20.32-23.68L20.32-23.68Q19.84-27.28 19.24-30.84L19.24-30.84L19.24-30.84Q18.64-34.40 18.16-38L18.16-38L18.16-38Q17.68-41.60 18-45.28L18-45.28L18-45.28Q18.32-48.96 20.28-51.12L20.28-51.12L20.28-51.12Q22.24-53.28 26.16-53.28L26.16-53.28L26.16-53.28Q27.52-53.28 29.64-52.80L29.64-52.80L29.64-52.80Q31.76-52.32 33.12-51.44L33.12-51.44L33.12-51.44Q34.56-50.48 32.88-50.88L32.88-50.88L32.88-50.88Q31.92-51.12 30.40-51.44L30.40-51.44L30.40-51.44Q28.88-51.76 28.08-51.76L28.08-51.76L28.08-51.76Q24.96-51.76 22.72-50.40L22.72-50.40L22.72-50.40Q20.48-49.04 20.16-45.60L20.16-45.60L20.16-45.60Q19.76-41.92 20.32-38.28L20.32-38.28L20.32-38.28Q20.88-34.64 21.60-30.96L21.60-30.96L21.60-30.96Q22.32-27.28 22.84-23.60L22.84-23.60L22.84-23.60Q23.36-19.92 23.04-16.24L23.04-16.24L23.04-16.24Q22.80-13.20 21.84-10.32L21.84-10.32L21.84-10.32Q20.88-7.44 19.12-5.12L19.12-5.12L19.12-5.12Q17.36-2.80 14.76-1.40L14.76-1.40L14.76-1.40Q12.16 0 8.64 0L8.64 0L8.64 0Q7.68 0 6.16-0.32L6.16-0.32L6.16-0.32Q4.64-0.64 3.12-1.16L3.12-1.16L3.12-1.16Q1.60-1.68 0.28-2.44L0.28-2.44L0.28-2.44Q-1.04-3.20-1.68-4.08L-1.68-4.08L-1.68-4.08Q-2.40-4.88-1.20-4.48L-1.20-4.48L-1.20-4.48Q0.16-3.76 2.12-2.72L2.12-2.72L2.12-2.72Q4.08-1.68 7.60-1.68" fill="#ffffff" stroke="none" stroke-width="none" transform="translate(-87.41448974609375,21.585558842250283)" style="fill: rgb(255, 255, 255);"></path></g><g class="path" style="transform: matrix(1, 0, 0, 1, 0, 0); transform-origin: -80.7772px 16.8256px; animation: 4.16667s linear -3.57143s infinite normal forwards running tremble-2e6f09e0-7814-436c-bf3e-9b68dd88d6de;"><path d="M7.12-4.48L7.12-4.48L7.12-4.48Q9.12-4.48 10.80-5.12L10.80-5.12L10.80-5.12Q12.48-5.76 14.24-6.80L14.24-6.80L14.24-6.56L14.24-6.56Q14.24-5.84 13.48-5.16L13.48-5.16L13.48-5.16Q12.72-4.48 11.60-3.92L11.60-3.92L11.60-3.92Q10.48-3.36 9.08-3.04L9.08-3.04L9.08-3.04Q7.68-2.72 6.24-2.72L6.24-2.72L6.24-2.72Q5.68-2.72 4.72-2.92L4.72-2.92L4.72-2.92Q3.76-3.12 2.76-3.48L2.76-3.48L2.76-3.48Q1.76-3.84 0.88-4.32L0.88-4.32L0.88-4.32Q0-4.80-0.32-5.44L-0.32-5.44L-0.32-5.44Q-1.20-6.40-0.88-6.52L-0.88-6.52L-0.88-6.52Q-0.56-6.64 0-6.24L0-6.24L0-6.24Q1.28-5.84 2.92-5.16L2.92-5.16L2.92-5.16Q4.56-4.48 7.12-4.48" fill="#ffffff" stroke="none" stroke-width="none" transform="translate(-87.41448974609375,21.585558842250283)" style="fill: rgb(255, 180, 6);"></path></g><g class="path" style="transform: matrix(1, 0, 0, 1, 0, 0); transform-origin: -28.1437px -5.22444px; animation: 4.16667s linear -3.42262s infinite normal forwards running tremble-2e6f09e0-7814-436c-bf3e-9b68dd88d6de;"><path d="M62.16-28.16L62.16-28.16L62.16-28.16Q61.52-24.96 60-21.76L60-21.76L60-21.76Q58.48-18.56 57.12-15.76L57.12-15.76L57.12-15.76Q57.04-15.60 56.76-15.20L56.76-15.20L56.76-15.20Q56.48-14.80 56.32-14.80L56.32-14.80L56.32-14.80Q56.08-14.88 56.08-15.32L56.08-15.32L56.08-15.32Q56.08-15.76 56.08-15.92L56.08-15.92L56.08-15.92Q56.16-16.64 56.36-17.64L56.36-17.64L56.36-17.64Q56.56-18.64 56.72-19.72L56.72-19.72L56.72-19.72Q56.88-20.80 57.08-21.80L57.08-21.80L57.08-21.80Q57.28-22.80 57.52-23.60L57.52-23.60L57.52-23.60Q58.24-26.32 58.72-28.28L58.72-28.28L58.72-28.28Q59.20-30.24 59.44-31.84L59.44-31.84L59.44-31.84Q59.68-33.44 59.72-34.88L59.72-34.88L59.72-34.88Q59.76-36.32 59.52-38L59.52-38L59.52-38Q59.44-38.64 59.60-38.80L59.60-38.80L59.60-38.80Q59.76-38.88 60-38.64L60-38.64L60-38.64Q60.24-38.40 60.40-38.16L60.40-38.16L60.40-38.16Q61.76-36 62.24-33.40L62.24-33.40L62.24-33.40Q62.72-30.80 62.16-28.16" fill="#ffffff" stroke="none" stroke-width="none" transform="translate(-87.41448974609375,21.585558842250283)" style="fill: rgb(255, 255, 255);"></path></g><g class="path" style="transform: matrix(1, 0, 0, 1, 0, 0); transform-origin: -25.8745px 2.46556px; animation: 4.16667s linear -3.27381s infinite normal forwards running tremble-2e6f09e0-7814-436c-bf3e-9b68dd88d6de;"><path d="M63.76-34L64.08-33.52L64.08-33.52Q65.12-32 65.12-29.52L65.12-29.52L65.12-29.52Q65.12-27.04 64.64-24.44L64.64-24.44L64.64-24.44Q64.16-21.84 63.44-19.44L63.44-19.44L63.44-19.44Q62.72-17.04 62.40-15.60L62.40-15.60L62.40-15.60Q61.76-12.80 60.64-10L60.64-10L60.64-10Q59.52-7.20 58.72-5.04L58.72-5.04L58.72-5.04Q58.64-4.80 58.48-4.52L58.48-4.52L58.48-4.52Q58.32-4.24 58.16-4.24L58.16-4.24L58.16-4.24Q58-4.24 58-4.56L58-4.56L58-4.56Q58-4.88 58-5.12L58-5.12L58-5.12Q57.76-9.52 58.96-13.72L58.96-13.72L58.96-13.72Q60.16-17.92 61.52-22.24L61.52-22.24L61.52-22.24Q62.32-24.88 63.04-27.64L63.04-27.64L63.04-27.64Q63.76-30.40 63.68-33.68L63.68-33.68L63.68-33.68Q63.68-34 63.76-34L63.76-34" fill="#ffffff" stroke="none" stroke-width="none" transform="translate(-87.41448974609375,21.585558842250283)" style="fill: rgb(255, 180, 6);"></path></g><g class="path" style="transform: matrix(1, 0, 0, 1, 0, 0); transform-origin: -42.6162px 2.14148px; animation: 4.16667s linear -3.125s infinite normal forwards running tremble-2e6f09e0-7814-436c-bf3e-9b68dd88d6de;"><path d="M56.56-34.88L56.56-34.88L56.56-34.88Q51.68-32.88 48.28-29.16L48.28-29.16L48.28-29.16Q44.88-25.44 43.04-20.80L43.04-20.80L43.04-20.80Q42.24-18.72 41.84-17.08L41.84-17.08L41.84-17.08Q41.44-15.44 41.20-13.52L41.20-13.52L41.20-13.52Q41.12-13.12 41.44-12.72L41.44-12.72L41.44-12.72Q41.76-12.32 42.08-12.72L42.08-12.72L42.08-12.72Q43.52-14.48 45.76-17.20L45.76-17.20L45.76-17.20Q48-19.92 50.24-22.96L50.24-22.96L50.24-22.96Q52.48-26 54.28-29.12L54.28-29.12L54.28-29.12Q56.08-32.24 56.56-34.88zM51.20-7.76L51.20-7.76L51.20-7.76Q50-6.08 48.88-4.64L48.88-4.64L48.88-4.64Q47.76-3.20 46.40-2.12L46.40-2.12L46.40-2.12Q45.04-1.04 43.36-0.40L43.36-0.40L43.36-0.40Q41.68 0.24 39.52 0.32L39.52 0.32L39.52 0.32Q35.92 0.48 34.04-1.52L34.04-1.52L34.04-1.52Q32.16-3.52 31.44-6.40L31.44-6.40L31.44-6.40Q30.72-9.28 30.92-12.36L30.92-12.36L30.92-12.36Q31.12-15.44 31.76-17.44L31.76-17.44L31.76-17.44Q32.64-20.24 33.88-22.76L33.88-22.76L33.88-22.76Q35.12-25.28 36.52-27.32L36.52-27.32L36.52-27.32Q37.92-29.36 39.40-30.84L39.40-30.84L39.40-30.84Q40.88-32.32 42.32-33.12L42.32-33.12L42.32-33.12Q42.40-33.12 42.68-33.28L42.68-33.28L42.68-33.28Q42.96-33.44 42.96-33.20L42.96-33.20L42.96-33.20Q43.04-33.20 42.88-32.96L42.88-32.96L42.88-32.96Q42.72-32.72 42.56-32.56L42.56-32.56L42.56-32.56Q38.40-28.24 35.96-22.80L35.96-22.80L35.96-22.80Q33.52-17.36 33.20-11.60L33.20-11.60L33.20-11.60Q33.12-10.16 33.32-8.48L33.32-8.48L33.32-8.48Q33.52-6.80 34.12-5.32L34.12-5.32L34.12-5.32Q34.72-3.84 35.84-2.84L35.84-2.84L35.84-2.84Q36.96-1.84 38.88-1.84L38.88-1.84L38.88-1.84Q40.40-1.84 41.68-2.36L41.68-2.36L41.68-2.36Q42.96-2.88 44.08-3.72L44.08-3.72L44.08-3.72Q45.20-4.56 46.12-5.56L46.12-5.56L46.12-5.56Q47.04-6.56 47.76-7.44L47.76-7.44L47.76-7.44Q49.36-9.44 50.72-11.60L50.72-11.60L50.72-11.60Q50.72-13.20 50.92-14.72L50.92-14.72L50.92-14.72Q51.12-16.24 51.52-17.76L51.52-17.76L51.52-17.76Q51.76-18.88 51.96-19.56L51.96-19.56L51.96-19.56Q52.16-20.24 52.36-20.84L52.36-20.84L52.36-20.84Q52.56-21.44 52.76-22.12L52.76-22.12L52.76-22.12Q52.96-22.80 53.36-23.92L53.36-23.92L53.36-23.92Q52.08-21.68 50.84-19.72L50.84-19.72L50.84-19.72Q49.60-17.76 48.20-15.96L48.20-15.96L48.20-15.96Q46.80-14.16 45.32-12.44L45.32-12.44L45.32-12.44Q43.84-10.72 42.08-8.96L42.08-8.96L42.08-8.96Q40.72-7.60 39.84-8.08L39.84-8.08L39.84-8.08Q38.96-8.56 38.80-10.32L38.80-10.32L38.80-10.32Q38.64-13.04 39.08-15.60L39.08-15.60L39.08-15.60Q39.52-18.16 40.64-20.96L40.64-20.96L40.64-20.96Q41.68-23.52 43.24-25.92L43.24-25.92L43.24-25.92Q44.80-28.32 46.84-30.28L46.84-30.28L46.84-30.28Q48.88-32.24 51.36-33.64L51.36-33.64L51.36-33.64Q53.84-35.04 56.64-35.52L56.64-35.52L56.64-35.52Q56.80-36.40 56.92-37.04L56.92-37.04L56.92-37.04Q57.04-37.68 57.12-38.32L57.12-38.32L57.12-38.32Q57.28-39.20 57.28-39.20L57.28-39.20L57.28-39.20Q57.44-39.28 57.64-39.04L57.64-39.04L57.64-39.04Q57.84-38.80 58-38.40L58-38.40L58-38.40Q58.96-35.76 58.64-33.12L58.64-33.12L58.64-33.12Q58.32-30.48 57.48-27.76L57.48-27.76L57.48-27.76Q56.64-25.04 55.52-22.20L55.52-22.20L55.52-22.20Q54.40-19.36 53.68-16.48L53.68-16.48L53.68-16.48Q52.72-12.40 53.16-8.04L53.16-8.04L53.16-8.04Q53.60-3.68 56.56-0.16L56.56-0.16L56.56-0.16Q56.80 0.16 56.80 0.16L56.80 0.16L56.80 0.16Q56.72 0.24 56.32 0L56.32 0L56.32 0Q54-1.44 52.84-3.48L52.84-3.48L52.84-3.48Q51.68-5.52 51.20-7.76" fill="#ffffff" stroke="none" stroke-width="none" transform="translate(-87.41448974609375,21.585558842250283)" style="fill: rgb(255, 255, 255);"></path></g><g class="path" style="transform: matrix(1, 0, 0, 1, 0, 0); transform-origin: -43.1078px 1.69413px; animation: 4.16667s linear -2.97619s infinite normal forwards running tremble-2e6f09e0-7814-436c-bf3e-9b68dd88d6de;"><path d="M54-36.08L54-36.08L54-36.08Q54.16-35.92 53.96-35.84L53.96-35.84L53.96-35.84Q53.76-35.76 53.12-35.60L53.12-35.60L53.12-35.60Q52.08-35.28 50.60-34.40L50.60-34.40L50.60-34.40Q49.12-33.52 47.48-32.16L47.48-32.16L47.48-32.16Q45.84-30.80 44.24-29L44.24-29L44.24-29Q42.64-27.20 41.44-25.12L41.44-25.12L41.44-25.12Q40.24-22.96 39.40-20.88L39.40-20.88L39.40-20.88Q38.56-18.80 38.04-17.08L38.04-17.08L38.04-17.08Q37.52-15.36 37.28-14.12L37.28-14.12L37.28-14.12Q37.04-12.88 37.04-12.40L37.04-12.40L37.04-12.40Q37.04-11.20 37.04-9.88L37.04-9.88L37.04-9.88Q37.04-8.56 37.36-7.52L37.36-7.52L37.36-7.52Q37.68-6.48 38.48-5.92L38.48-5.92L38.48-5.92Q39.28-5.36 40.88-5.60L40.88-5.60L40.88-5.60Q40.96-5.60 41.28-5.72L41.28-5.72L41.28-5.72Q41.60-5.84 41.92-5.96L41.92-5.96L41.92-5.96Q42.24-6.08 42.52-6.16L42.52-6.16L42.52-6.16Q42.80-6.24 42.88-6.24L42.88-6.24L42.88-6.24Q42.96-6.08 42.76-5.84L42.76-5.84L42.76-5.84Q42.56-5.60 42.24-5.32L42.24-5.32L42.24-5.32Q41.92-5.04 41.64-4.80L41.64-4.80L41.64-4.80Q41.36-4.56 41.28-4.48L41.28-4.48L41.28-4.48Q39.28-3.28 37.92-3.76L37.92-3.76L37.92-3.76Q36.56-4.24 35.80-5.56L35.80-5.56L35.80-5.56Q35.04-6.88 34.76-8.68L34.76-8.68L34.76-8.68Q34.48-10.48 34.56-11.92L34.56-11.92L34.56-11.92Q34.72-14.72 35.44-17.48L35.44-17.48L35.44-17.48Q36.16-20.24 37.28-23.04L37.28-23.04L37.28-23.04Q38.16-25.20 39.92-27.48L39.92-27.48L39.92-27.48Q41.68-29.76 43.88-31.68L43.88-31.68L43.88-31.68Q46.08-33.60 48.48-34.84L48.48-34.84L48.48-34.84Q50.88-36.08 53.12-36.16L53.12-36.16L53.12-36.16Q53.92-36.16 54-36.08" fill="#ffffff" stroke="none" stroke-width="none" transform="translate(-87.41448974609375,21.585558842250283)" style="fill: rgb(255, 180, 6);"></path></g><g class="path" style="transform: matrix(1, 0, 0, 1, 0, 0); transform-origin: -30.5212px 17.0656px; animation: 4.16667s linear -2.82738s infinite normal forwards running tremble-2e6f09e0-7814-436c-bf3e-9b68dd88d6de;"><path d="M58.72-0.16L58.72-0.16L58.72-0.16Q58.88 0.08 58.80 0.16L58.80 0.16L58.80 0.16Q58.56 0.16 58.16 0L58.16 0L58.16 0Q57.92-0.16 56.88-0.96L56.88-0.96L56.88-0.96Q55.84-1.76 55.36-3.52L55.36-3.52L55.36-3.52Q55.20-4.16 55.08-5.16L55.08-5.16L55.08-5.16Q54.96-6.16 54.96-7.04L54.96-7.04L54.96-7.04Q54.96-7.92 55.08-8.56L55.08-8.56L55.08-8.56Q55.20-9.20 55.44-9.20L55.44-9.20L55.44-9.20Q55.68-9.20 55.96-8.24L55.96-8.24L55.96-8.24Q56.24-7.28 56.32-7.04L56.32-7.04L56.32-7.04Q56.56-5.92 56.76-5.08L56.76-5.08L56.76-5.08Q56.96-4.24 57.20-3.52L57.20-3.52L57.20-3.52Q57.52-2.64 58.04-1.52L58.04-1.52L58.04-1.52Q58.56-0.40 58.72-0.16" fill="#ffffff" stroke="none" stroke-width="none" transform="translate(-87.41448974609375,21.585558842250283)" style="fill: rgb(255, 255, 255);"></path></g><g class="path" style="transform: matrix(1, 0, 0, 1, 0, 0); transform-origin: 5.95251px 2.66192px; animation: 4.16667s linear -2.67857s infinite normal forwards running tremble-2e6f09e0-7814-436c-bf3e-9b68dd88d6de;"><path d="M87.28-20.24L87.28-20.24L87.28-20.24Q86.16-15.44 85.76-10.24L85.76-10.24L85.76-10.24Q85.36-5.04 86.40-0.16L86.40-0.16L86.40-0.16Q86.48 0 86.36 0.20L86.36 0.20L86.36 0.20Q86.24 0.40 86.08 0L86.08 0L86.08 0Q84.72-2.64 84.20-5.36L84.20-5.36L84.20-5.36Q83.68-8.08 83.68-10.76L83.68-10.76L83.68-10.76Q83.68-13.44 84.08-16.16L84.08-16.16L84.08-16.16Q84.48-18.88 85.12-21.52L85.12-21.52L85.12-21.52Q85.20-21.84 85.44-22.84L85.44-22.84L85.44-22.84Q85.68-23.84 85.80-24.84L85.80-24.84L85.80-24.84Q85.92-25.84 85.76-26.40L85.76-26.40L85.76-26.40Q85.60-26.96 84.80-26.40L84.80-26.40L84.80-26.40Q82.96-25.04 81.40-23L81.40-23L81.40-23Q79.84-20.96 78.88-19.04L78.88-19.04L78.88-19.04Q78.80-18.88 78.52-18.12L78.52-18.12L78.52-18.12Q78.24-17.36 77.96-16.48L77.96-16.48L77.96-16.48Q77.68-15.60 77.44-14.76L77.44-14.76L77.44-14.76Q77.20-13.92 77.12-13.68L77.12-13.68L77.12-13.68Q76.48-11.20 75.52-8.96L75.52-8.96L75.52-8.96Q74.56-6.72 73.92-4.80L73.92-4.80L73.92-4.80Q73.68-4 73.60-4.08L73.60-4.08L73.60-4.08Q73.20-4.08 73.20-4.80L73.20-4.80L73.20-4.80Q72.80-8.72 73.88-12.36L73.88-12.36L73.88-12.36Q74.96-16 76.24-19.84L76.24-19.84L76.24-19.84Q77.04-22.32 77.72-24.76L77.72-24.76L77.72-24.76Q78.40-27.20 78.32-30.16L78.32-30.16L78.32-30.16Q78.24-32.24 79.88-34.24L79.88-34.24L79.88-34.24Q81.52-36.24 84.80-37.60L84.80-37.60L84.80-37.60Q86.72-38.40 88.40-38.32L88.40-38.32L88.40-38.32Q90.08-38.24 91.52-37.60L91.52-37.60L91.52-37.60Q92.96-36.96 94.08-35.76L94.08-35.76L94.08-35.76Q95.20-34.56 95.92-33.12L95.92-33.12L95.92-33.12Q96.40-34 97.36-35L97.36-35L97.36-35Q98.32-36 99.64-36.72L99.64-36.72L99.64-36.72Q100.96-37.44 102.60-37.80L102.60-37.80L102.60-37.80Q104.24-38.16 106.24-37.84L106.24-37.84L106.24-37.84Q107.68-37.60 108.76-36.88L108.76-36.88L108.76-36.88Q109.84-36.16 110.68-35.24L110.68-35.24L110.68-35.24Q111.52-34.32 112-33.36L112-33.36L112-33.36Q112.48-32.40 112.72-31.76L112.72-31.76L112.72-31.76Q113.60-29.12 113.64-25.84L113.64-25.84L113.64-25.84Q113.68-22.56 112.96-19.92L112.96-19.92L112.96-19.92Q111.76-15.60 110.12-12.24L110.12-12.24L110.12-12.24Q108.48-8.88 107.92-6.24L107.92-6.24L107.92-6.24Q107.68-5.36 107.60-5.36L107.60-5.36L107.60-5.36Q107.28-5.36 107.24-5.68L107.24-5.68L107.24-5.68Q107.20-6 107.12-6.32L107.12-6.32L107.12-6.32Q106.96-8 107.56-10.60L107.56-10.60L107.56-10.60Q108.16-13.20 108.96-16.20L108.96-16.20L108.96-16.20Q109.76-19.20 110.40-22.32L110.40-22.32L110.40-22.32Q111.04-25.44 110.96-28.12L110.96-28.12L110.96-28.12Q110.88-30.80 109.76-32.80L109.76-32.80L109.76-32.80Q108.64-34.80 105.92-35.52L105.92-35.52L105.92-35.52Q103.76-36.08 102.12-35.56L102.12-35.56L102.12-35.56Q100.48-35.04 99.36-34.40L99.36-34.40L99.36-34.40Q97.68-33.28 97.20-32.04L97.20-32.04L97.20-32.04Q96.72-30.80 96.72-29.68L96.72-29.68L96.72-29.68Q98.08-32.16 100.32-33.64L100.32-33.64L100.32-33.64Q102.56-35.12 105.60-34.16L105.60-34.16L105.60-34.16Q107.60-33.52 108.44-31.76L108.44-31.76L108.44-31.76Q109.28-30 109.36-27.84L109.36-27.84L109.36-27.84Q109.44-25.68 108.92-23.52L108.92-23.52L108.92-23.52Q108.40-21.36 107.68-19.92L107.68-19.92L107.68-19.92Q107.60-19.76 107.28-19.16L107.28-19.16L107.28-19.16Q106.96-18.56 106.56-18.64L106.56-18.64L106.56-18.64Q106.48-18.64 106.52-19.28L106.52-19.28L106.52-19.28Q106.56-19.92 106.56-20.24L106.56-20.24L106.56-20.24Q106.80-21.20 106.88-22.48L106.88-22.48L106.88-22.48Q106.96-23.76 106.92-25.12L106.92-25.12L106.92-25.12Q106.88-26.48 106.72-27.76L106.72-27.76L106.72-27.76Q106.56-29.04 106.24-29.92L106.24-29.92L106.24-29.92Q105.84-31.04 105-31.40L105-31.40L105-31.40Q104.16-31.76 103.20-31.60L103.20-31.60L103.20-31.60Q102.24-31.44 101.32-30.96L101.32-30.96L101.32-30.96Q100.40-30.48 99.76-29.92L99.76-29.92L99.76-29.92Q98-28.40 97.60-27.16L97.60-27.16L97.60-27.16Q97.20-25.92 96.96-24.32L96.96-24.32L96.96-24.32Q97.92-25.92 99.32-27.32L99.32-27.32L99.32-27.32Q100.72-28.72 102.08-29.60L102.08-29.60L102.08-29.60Q102.80-29.92 103.32-29.84L103.32-29.84L103.32-29.84Q103.84-29.76 104.20-29.40L104.20-29.40L104.20-29.40Q104.56-29.04 104.72-28.52L104.72-28.52L104.72-28.52Q104.88-28 104.96-27.60L104.96-27.60L104.96-27.60Q105.20-24.96 104.76-22.96L104.76-22.96L104.76-22.96Q104.32-20.96 103.72-18.84L103.72-18.84L103.72-18.84Q103.12-16.72 102.76-14.12L102.76-14.12L102.76-14.12Q102.40-11.52 102.88-7.68L102.88-7.68L102.88-7.68Q103.28-4.88 104.56-2.64L104.56-2.64L104.56-2.64Q105.84-0.40 107.76 0.16L107.76 0.16L107.76 0.16Q108.32 0.32 108.04 0.40L108.04 0.40L108.04 0.40Q107.76 0.48 107.60 0.48L107.60 0.48L107.60 0.48Q106.16 0.32 104.88-0.64L104.88-0.64L104.88-0.64Q103.60-1.60 102.60-3.04L102.60-3.04L102.60-3.04Q101.60-4.48 100.96-6.24L100.96-6.24L100.96-6.24Q100.32-8 100.24-9.76L100.24-9.76L100.24-9.76Q100-13.36 100.68-16.60L100.68-16.60L100.68-16.60Q101.36-19.84 102-22.16L102-22.16L102-22.16Q102.16-22.80 102.36-23.80L102.36-23.80L102.36-23.80Q102.56-24.80 102.52-25.52L102.52-25.52L102.52-25.52Q102.48-26.24 102-26.36L102-26.36L102-26.36Q101.52-26.48 100.40-25.44L100.40-25.44L100.40-25.44Q98.80-24 97.60-22.32L97.60-22.32L97.60-22.32Q96.40-20.64 95.84-18.56L95.84-18.56L95.84-18.56Q94-11.92 90.56-5.84L90.56-5.84L90.56-5.84Q90.40-5.52 90.16-5.24L90.16-5.24L90.16-5.24Q89.92-4.96 89.84-5.04L89.84-5.04L89.84-5.04Q89.68-5.04 89.76-5.44L89.76-5.44L89.76-5.44Q89.84-5.84 89.92-6.24L89.92-6.24L89.92-6.24Q90.40-9.04 91.12-11.68L91.12-11.68L91.12-11.68Q91.84-14.32 92.52-17.08L92.52-17.08L92.52-17.08Q93.20-19.84 93.72-22.76L93.72-22.76L93.72-22.76Q94.24-25.68 94.32-29.04L94.32-29.04L94.32-29.04Q94.16-30.16 93.88-31.36L93.88-31.36L93.88-31.36Q93.60-32.56 92.24-34.16L92.24-34.16L92.24-34.16Q90.64-35.92 88.48-36L88.48-36L88.48-36Q86.32-36.08 84.96-35.60L84.96-35.60L84.96-35.60Q84.08-35.36 83.08-34.72L83.08-34.72L83.08-34.72Q82.08-34.08 81.24-33.20L81.24-33.20L81.24-33.20Q80.40-32.32 79.88-31.16L79.88-31.16L79.88-31.16Q79.36-30 79.60-28.64L79.60-28.64L79.60-28.64Q80.48-30.24 81.64-31.76L81.64-31.76L81.64-31.76Q82.80-33.28 84.64-34.08L84.64-34.08L84.64-34.08Q85.20-34.32 86.08-34.52L86.08-34.52L86.08-34.52Q86.96-34.72 87.92-34.76L87.92-34.76L87.92-34.76Q88.88-34.80 89.84-34.48L89.84-34.48L89.84-34.48Q90.80-34.16 91.52-33.28L91.52-33.28L91.52-33.28Q92.80-31.68 92.92-30.40L92.92-30.40L92.92-30.40Q93.04-29.12 92.96-27.84L92.96-27.84L92.96-27.84Q92.80-25.52 92.24-23.48L92.24-23.48L92.24-23.48Q91.68-21.44 90.80-19.60L90.80-19.60L90.80-19.60Q90.72-19.36 90.40-18.84L90.40-18.84L90.40-18.84Q90.08-18.32 89.92-18.32L89.92-18.32L89.92-18.32Q89.76-18.40 89.72-19L89.72-19L89.72-19Q89.68-19.60 89.84-19.84L89.84-19.84L89.84-19.84Q89.92-20.72 90.08-22.44L90.08-22.44L90.08-22.44Q90.24-24.16 90.28-26.04L90.28-26.04L90.28-26.04Q90.32-27.92 90.08-29.48L90.08-29.48L90.08-29.48Q89.84-31.04 89.04-31.68L89.04-31.68L89.04-31.68Q88.32-32.24 86.88-32L86.88-32L86.88-32Q85.44-31.76 84.32-30.88L84.32-30.88L84.32-30.88Q83.20-30 82.44-29.20L82.44-29.20L82.44-29.20Q81.68-28.40 81.20-27.56L81.20-27.56L81.20-27.56Q80.72-26.72 80.36-25.72L80.36-25.72L80.36-25.72Q80.00-24.72 79.76-23.36L79.76-23.36L79.76-23.36Q80.72-25.20 82-26.80L82-26.80L82-26.80Q83.28-28.40 85.12-29.52L85.12-29.52L85.12-29.52Q86.40-30.40 87.12-30.24L87.12-30.24L87.12-30.24Q87.84-30.08 88.12-29.36L88.12-29.36L88.12-29.36Q88.40-28.64 88.36-27.52L88.36-27.52L88.36-27.52Q88.32-26.40 88.24-25.44L88.24-25.44L88.24-25.44Q88.08-24.16 87.84-22.80L87.84-22.80L87.84-22.80Q87.60-21.44 87.28-20.24" fill="#ffffff" stroke="none" stroke-width="none" transform="translate(-87.41448974609375,21.585558842250283)" style="fill: rgb(255, 180, 6);"></path></g><g class="path" style="transform: matrix(1, 0, 0, 1, 0, 0); transform-origin: 19.7684px 16.0622px; animation: 4.16667s linear -2.52976s infinite normal forwards running tremble-2e6f09e0-7814-436c-bf3e-9b68dd88d6de;"><path d="M110.16 0.16L110.16 0.16L110.16 0.16Q110.16 0.16 109.76 0.16L109.76 0.16L109.76 0.16Q109.60 0.16 109.36 0.08L109.36 0.08L109.36 0.08Q108.24-0.16 106.96-0.92L106.96-0.92L106.96-0.92Q105.68-1.68 104.80-3.76L104.80-3.76L104.80-3.76Q104.48-4.56 104.32-5.84L104.32-5.84L104.32-5.84Q104.16-7.12 104.16-8.32L104.16-8.32L104.16-8.32Q104.16-9.52 104.32-10.40L104.32-10.40L104.32-10.40Q104.48-11.28 104.80-11.20L104.80-11.20L104.80-11.20Q104.88-11.20 105-10.84L105-10.84L105-10.84Q105.12-10.48 105.20-10L105.20-10L105.20-10Q105.28-9.52 105.36-9.04L105.36-9.04L105.36-9.04Q105.44-8.56 105.44-8.32L105.44-8.32L105.44-8.32Q105.60-7.20 105.84-6.12L105.84-6.12L105.84-6.12Q106.08-5.04 106.48-4.16L106.48-4.16L106.48-4.16Q106.88-2.96 107.96-1.64L107.96-1.64L107.96-1.64Q109.04-0.32 109.92-0.16L109.92-0.16L109.92-0.16Q110.32 0 110.16 0.16" fill="#ffffff" stroke="none" stroke-width="none" transform="translate(-87.41448974609375,21.585558842250283)" style="fill: rgb(255, 255, 255);"></path></g><g class="path" style="transform: matrix(1, 0, 0, 1, 0, 0); transform-origin: 0.378845px 16.2216px; animation: 4.16667s linear -2.38095s infinite normal forwards running tremble-2e6f09e0-7814-436c-bf3e-9b68dd88d6de;"><path d="M88.64 0L88.64 0L88.64 0Q88.80 0.56 88.64 0.56L88.64 0.56L88.64 0.56Q88.24 0.56 88 0.16L88 0.16L88 0.16Q87.60-0.32 87.20-1.24L87.20-1.24L87.20-1.24Q86.80-2.16 86.88-4.40L86.88-4.40L86.88-4.40Q86.88-5.28 87.04-6.52L87.04-6.52L87.04-6.52Q87.20-7.76 87.40-8.84L87.40-8.84L87.40-8.84Q87.60-9.92 87.84-10.64L87.84-10.64L87.84-10.64Q88.08-11.36 88.40-11.28L88.40-11.28L88.40-11.28Q88.48-11.28 88.52-10.92L88.52-10.92L88.52-10.92Q88.56-10.56 88.60-10.08L88.60-10.08L88.60-10.08Q88.64-9.60 88.64-9.16L88.64-9.16L88.64-9.16Q88.64-8.72 88.64-8.56L88.64-8.56L88.64-8.56Q88.64-7.28 88.56-6.28L88.56-6.28L88.56-6.28Q88.48-5.28 88.48-4.16L88.48-4.16L88.48-4.16Q88.48-2.64 88.48-1.60L88.48-1.60L88.48-1.60Q88.48-0.56 88.64 0" fill="#ffffff" stroke="none" stroke-width="none" transform="translate(-87.41448974609375,21.585558842250283)" style="fill: rgb(255, 180, 6);"></path></g><g class="path" style="transform: matrix(1, 0, 0, 1, 0, 0); transform-origin: -13.392px -3.80829px; animation: 4.16667s linear -2.23214s infinite normal forwards running tremble-2e6f09e0-7814-436c-bf3e-9b68dd88d6de;"><path d="M76.80-26.56L76.80-26.56L76.80-26.56Q75.92-23.52 74.44-20.56L74.44-20.56L74.44-20.56Q72.96-17.60 72.00-14.88L72.00-14.88L72.00-14.88Q71.92-14.72 71.72-14.28L71.72-14.28L71.72-14.28Q71.52-13.84 71.20-13.92L71.20-13.92L71.20-13.92Q71.04-14 71.00-14.44L71.00-14.44L71.00-14.44Q70.96-14.88 70.96-15.12L70.96-15.12L70.96-15.12Q70.96-16.40 71.40-18.52L71.40-18.52L71.40-18.52Q71.84-20.64 72.32-22L72.32-22L72.32-22Q72.48-22.48 72.92-24.44L72.92-24.44L72.92-24.44Q73.36-26.40 73.72-28.72L73.72-28.72L73.72-28.72Q74.08-31.04 74.20-33.20L74.20-33.20L74.20-33.20Q74.32-35.36 73.76-36.32L73.76-36.32L73.76-36.32Q73.44-36.88 73.76-36.88L73.76-36.88L73.76-36.88Q74.00-36.88 74.40-36.48L74.40-36.48L74.40-36.48Q75.36-35.60 75.96-34.32L75.96-34.32L75.96-34.32Q76.56-33.04 76.84-31.64L76.84-31.64L76.84-31.64Q77.12-30.24 77.08-28.88L77.08-28.88L77.08-28.88Q77.04-27.52 76.80-26.56" fill="#ffffff" stroke="none" stroke-width="none" transform="translate(-87.41448974609375,21.585558842250283)" style="fill: rgb(255, 255, 255);"></path></g><g class="path" style="transform: matrix(1, 0, 0, 1, 0, 0); transform-origin: -18.0844px 2.63127px; animation: 4.16667s linear -2.08333s infinite normal forwards running tremble-2e6f09e0-7814-436c-bf3e-9b68dd88d6de;"><path d="M71.52 0.08L71.52 0.08L71.52 0.08Q69.04-1.60 67.72-3.60L67.72-3.60L67.72-3.60Q66.40-5.60 65.92-7.76L65.92-7.76L65.92-7.76Q65.44-9.92 65.56-12.16L65.56-12.16L65.56-12.16Q65.68-14.40 66.16-16.56L66.16-16.56L66.16-16.56Q66.80-19.44 67.80-22.28L67.80-22.28L67.80-22.28Q68.80-25.12 69.72-27.80L69.72-27.80L69.72-27.80Q70.64-30.48 71.16-33.04L71.16-33.04L71.16-33.04Q71.68-35.60 71.28-37.92L71.28-37.92L71.28-37.92Q71.28-38.24 71.36-38.24L71.36-38.24L71.36-38.24Q71.52-38.24 71.76-37.84L71.76-37.84L71.76-37.84Q73.20-35.28 73.12-32.56L73.12-32.56L73.12-32.56Q73.04-29.84 72.24-27L72.24-27L72.24-27Q71.44-24.16 70.28-21.24L70.28-21.24L70.28-21.24Q69.12-18.32 68.48-15.36L68.48-15.36L68.48-15.36Q68.08-13.52 67.96-11.48L67.96-11.48L67.96-11.48Q67.84-9.44 68.24-7.44L68.24-7.44L68.24-7.44Q68.64-5.44 69.56-3.52L69.56-3.52L69.56-3.52Q70.48-1.60 72.08-0.08L72.08-0.08L72.08-0.08Q72.40 0.08 72.24 0.24L72.24 0.24L72.24 0.24Q72.08 0.40 71.88 0.28L71.88 0.28L71.88 0.28Q71.68 0.16 71.52 0.08" fill="#ffffff" stroke="none" stroke-width="none" transform="translate(-87.41448974609375,21.585558842250283)" style="fill: rgb(255, 180, 6);"></path></g><g class="path" style="transform: matrix(1, 0, 0, 1, 0, 0); transform-origin: -15.1212px 17.4884px; animation: 4.16667s linear -1.93452s infinite normal forwards running tremble-2e6f09e0-7814-436c-bf3e-9b68dd88d6de;"><path d="M74.56 0.40L74.56 0.40L74.56 0.40Q74.32 0.56 73.92 0.16L73.92 0.16L73.92 0.16Q73.04-0.48 72.20-1.20L72.20-1.20L72.20-1.20Q71.36-1.92 70.56-3.52L70.56-3.52L70.56-3.52Q70.24-4.08 70.08-4.96L70.08-4.96L70.08-4.96Q69.92-5.84 69.92-6.68L69.92-6.68L69.92-6.68Q69.92-7.52 70.04-8.08L70.04-8.08L70.04-8.08Q70.16-8.64 70.40-8.64L70.40-8.64L70.40-8.64Q70.72-8.56 70.92-7.76L70.92-7.76L70.92-7.76Q71.12-6.96 71.28-6.72L71.28-6.72L71.28-6.72Q71.60-5.84 71.84-5.08L71.84-5.08L71.84-5.08Q72.08-4.32 72.40-3.60L72.40-3.60L72.40-3.60Q72.88-2.48 73.36-1.68L73.36-1.68L73.36-1.68Q73.84-0.88 74.48-0.08L74.48-0.08L74.48-0.08Q74.56 0 74.64 0.16L74.64 0.16L74.64 0.16Q74.72 0.32 74.56 0.40" fill="#ffffff" stroke="none" stroke-width="none" transform="translate(-87.41448974609375,21.585558842250283)" style="fill: rgb(255, 255, 255);"></path></g><g class="path" style="transform: matrix(1, 0, 0, 1, 0, 0); transform-origin: 51.6915px -3.2776px; animation: 4.16667s linear -1.78571s infinite normal forwards running tremble-2e6f09e0-7814-436c-bf3e-9b68dd88d6de;"><path d="M142.00-25.28L142.00-25.28L142.00-25.28Q141.04-22.32 139.72-19.60L139.72-19.60L139.72-19.60Q138.40-16.88 136.96-14.16L136.96-14.16L136.96-14.16Q136.80-14 136.48-13.40L136.48-13.40L136.48-13.40Q136.16-12.80 135.92-12.96L135.92-12.96L135.92-12.96Q135.76-12.96 135.80-13.44L135.80-13.44L135.80-13.44Q135.84-13.92 135.84-14.16L135.84-14.16L135.84-14.16Q135.92-14.80 136.20-16L136.20-16L136.20-16Q136.48-17.20 136.84-18.52L136.84-18.52L136.84-18.52Q137.20-19.84 137.56-21.08L137.56-21.08L137.56-21.08Q137.92-22.32 138.16-23.04L138.16-23.04L138.16-23.04Q139.52-27.36 139.92-30.72L139.92-30.72L139.92-30.72Q140.32-34.08 139.44-36.40L139.44-36.40L139.44-36.40Q139.28-36.80 139.44-36.80L139.44-36.80L139.44-36.80Q139.60-36.80 139.76-36.64L139.76-36.64L139.76-36.64Q139.92-36.48 140.00-36.40L140.00-36.40L140.00-36.40Q140.88-35.44 141.44-33.96L141.44-33.96L141.44-33.96Q142.00-32.48 142.24-30.92L142.24-30.92L142.24-30.92Q142.48-29.36 142.40-27.84L142.40-27.84L142.40-27.84Q142.32-26.32 142.00-25.28" fill="#ffffff" stroke="none" stroke-width="none" transform="translate(-87.41448974609375,21.585558842250283)" style="fill: rgb(255, 180, 6);"></path></g><g class="path" style="transform: matrix(1, 0, 0, 1, 0, 0); transform-origin: 53.8284px 4.50956px; animation: 4.16667s linear -1.6369s infinite normal forwards running tremble-2e6f09e0-7814-436c-bf3e-9b68dd88d6de;"><path d="M144.16-31.04L144.16-31.04L144.16-31.04Q145.20-29.44 145.12-27.04L145.12-27.04L145.12-27.04Q145.04-24.64 144.52-22.08L144.52-22.08L144.52-22.08Q144.00-19.52 143.24-17.20L143.24-17.20L143.24-17.20Q142.48-14.88 142.08-13.52L142.08-13.52L142.08-13.52Q141.28-10.88 140.16-8.12L140.16-8.12L140.16-8.12Q139.04-5.36 138.16-3.36L138.16-3.36L138.16-3.36Q137.84-2.64 137.68-2.72L137.68-2.72L137.68-2.72Q137.44-2.80 137.40-3.08L137.40-3.08L137.40-3.08Q137.36-3.36 137.36-3.52L137.36-3.52L137.36-3.52Q137.36-7.84 138.60-11.84L138.60-11.84L138.60-11.84Q139.84-15.84 141.28-19.92L141.28-19.92L141.28-19.92Q142.16-22.56 142.88-25.16L142.88-25.16L142.88-25.16Q143.60-27.76 143.60-30.88L143.60-30.88L143.60-30.88Q143.60-31.44 143.76-31.44L143.76-31.44L143.76-31.44Q143.84-31.44 143.92-31.32L143.92-31.32L143.92-31.32Q144.00-31.20 144.16-31.04" fill="#ffffff" stroke="none" stroke-width="none" transform="translate(-87.41448974609375,21.585558842250283)" style="fill: rgb(255, 255, 255);"></path></g><g class="path" style="transform: matrix(1, 0, 0, 1, 0, 0); transform-origin: 35.4401px 1.63588px; animation: 4.16667s linear -1.4881s infinite normal forwards running tremble-2e6f09e0-7814-436c-bf3e-9b68dd88d6de;"><path d="M128.16-5.92L128.16-5.92L128.16-5.92Q128.32-5.68 127.60-5.20L127.60-5.20L127.60-5.20Q126.88-4.72 126.64-4.64L126.64-4.64L126.64-4.64Q123.12-3.36 121.16-4.56L121.16-4.56L121.16-4.56Q119.20-5.76 118.36-8.16L118.36-8.16L118.36-8.16Q117.52-10.56 117.52-13.48L117.52-13.48L117.52-13.48Q117.52-16.40 117.84-18.72L117.84-18.72L117.84-18.72Q118.08-20.72 118.76-23.16L118.76-23.16L118.76-23.16Q119.44-25.60 120.40-27.96L120.40-27.96L120.40-27.96Q121.36-30.32 122.60-32.36L122.60-32.36L122.60-32.36Q123.84-34.40 125.28-35.52L125.28-35.52L125.28-35.52Q125.44-35.60 125.64-35.76L125.64-35.76L125.64-35.76Q125.84-35.92 126.00-35.92L126.00-35.92L126.00-35.92Q126.24-35.84 125.76-35.04L125.76-35.04L125.76-35.04Q125.28-34.24 124.60-32.80L124.60-32.80L124.60-32.80Q123.92-31.36 123.20-29.48L123.20-29.48L123.20-29.48Q122.48-27.60 121.80-25.52L121.80-25.52L121.80-25.52Q121.12-23.44 120.72-21.36L120.72-21.36L120.72-21.36Q120.32-19.28 120.16-17.36L120.16-17.36L120.16-17.36Q120.00-15.44 120.00-13.92L120.00-13.92L120.00-13.92Q120.00-12.40 120.08-11.36L120.08-11.36L120.08-11.36Q120.16-10.32 120.24-10L120.24-10L120.24-10Q120.80-7.52 122.36-6.36L122.36-6.36L122.36-6.36Q123.92-5.20 126.56-5.68L126.56-5.68L126.56-5.68Q126.64-5.68 127.36-5.84L127.36-5.84L127.36-5.84Q128.08-6 128.16-5.92" fill="#ffffff" stroke="none" stroke-width="none" transform="translate(-87.41448974609375,21.585558842250283)" style="fill: rgb(255, 180, 6);"></path></g><g class="path" style="transform: matrix(1, 0, 0, 1, 0, 0); transform-origin: 49.2255px 18.2736px; animation: 4.16667s linear -1.33929s infinite normal forwards running tremble-2e6f09e0-7814-436c-bf3e-9b68dd88d6de;"><path d="M138.48 0.24L138.48 0.24L138.48 0.24Q138.80 0.56 138.80 0.72L138.80 0.72L138.80 0.72Q138.80 0.88 138.44 0.80L138.44 0.80L138.44 0.80Q138.08 0.72 137.92 0.64L137.92 0.64L137.92 0.64Q137.28 0.32 136.32-0.28L136.32-0.28L136.32-0.28Q135.36-0.88 134.88-2.40L134.88-2.40L134.88-2.40Q134.64-3.04 134.56-3.96L134.56-3.96L134.56-3.96Q134.48-4.88 134.48-5.68L134.48-5.68L134.48-5.68Q134.48-6.48 134.64-7L134.64-7L134.64-7Q134.80-7.52 135.04-7.44L135.04-7.44L135.04-7.44Q135.20-7.36 135.40-6.72L135.40-6.72L135.40-6.72Q135.60-6.08 135.76-5.36L135.76-5.36L135.76-5.36Q135.92-4.48 136.16-3.72L136.16-3.72L136.16-3.72Q136.40-2.96 136.72-2.16L136.72-2.16L136.72-2.16Q137.12-1.28 137.52-0.76L137.52-0.76L137.52-0.76Q137.92-0.24 138.48 0.24" fill="#ffffff" stroke="none" stroke-width="none" transform="translate(-87.41448974609375,21.585558842250283)" style="fill: rgb(255, 255, 255);"></path></g><g class="path" style="transform: matrix(1, 0, 0, 1, 0, 0); transform-origin: 39.2906px 2.80956px; animation: 4.16667s linear -1.19048s infinite normal forwards running tremble-2e6f09e0-7814-436c-bf3e-9b68dd88d6de;"><path d="M131.12-4.16L131.12-4.16L131.12-4.16Q130.24-2.80 128.44-1.40L128.44-1.40L128.44-1.40Q126.64 0 123.60 0L123.60 0L123.60 0Q121.20 0 119.48-1.28L119.48-1.28L119.48-1.28Q117.76-2.56 116.68-4.48L116.68-4.48L116.68-4.48Q115.60-6.40 115.16-8.68L115.16-8.68L115.16-8.68Q114.72-10.96 114.72-13.04L114.72-13.04L114.72-13.04Q114.80-15.60 115.16-18.16L115.16-18.16L115.16-18.16Q115.52-20.72 116.12-22.96L116.12-22.96L116.12-22.96Q116.72-25.20 117.48-26.96L117.48-26.96L117.48-26.96Q118.24-28.72 119.04-29.84L119.04-29.84L119.04-29.84Q119.20-29.92 119.40-30.20L119.40-30.20L119.40-30.20Q119.60-30.48 119.76-30.32L119.76-30.32L119.76-30.32Q119.84-30.24 119.72-29.96L119.72-29.96L119.72-29.96Q119.60-29.68 119.52-29.52L119.52-29.52L119.52-29.52Q118.80-27.12 118.12-24.44L118.12-24.44L118.12-24.44Q117.44-21.76 117.04-19.04L117.04-19.04L117.04-19.04Q116.64-16.32 116.64-13.68L116.64-13.68L116.64-13.68Q116.64-11.04 117.12-8.80L117.12-8.80L117.12-8.80Q117.44-7.28 118.28-6L118.28-6L118.28-6Q119.12-4.72 120.12-3.84L120.12-3.84L120.12-3.84Q121.12-2.96 122.28-2.56L122.28-2.56L122.28-2.56Q123.44-2.16 124.56-2.32L124.56-2.32L124.56-2.32Q126.88-2.64 128.08-3.64L128.08-3.64L128.08-3.64Q129.28-4.64 129.80-6.04L129.80-6.04L129.80-6.04Q130.32-7.44 130.44-9.08L130.44-9.08L130.44-9.08Q130.56-10.72 130.80-12.40L130.80-12.40L130.80-12.40Q130.40-11.28 129.24-10.20L129.24-10.20L129.24-10.20Q128.08-9.12 126.76-8.52L126.76-8.52L126.76-8.52Q125.44-7.92 124.20-8L124.20-8L124.20-8Q122.96-8.08 122.32-9.44L122.32-9.44L122.32-9.44Q121.52-11.20 121.44-13.28L121.44-13.28L121.44-13.28Q121.36-15.36 121.52-17.84L121.52-17.84L121.52-17.84Q121.68-20.32 122.24-22.96L122.24-22.96L122.24-22.96Q122.80-25.60 123.76-28.04L123.76-28.04L123.76-28.04Q124.72-30.48 126.04-32.64L126.04-32.64L126.04-32.64Q127.36-34.80 129.04-36.48L129.04-36.48L129.36-36.80L129.36-36.80Q129.60-37.04 129.84-37.04L129.84-37.04L129.84-37.04Q129.84-37.04 129.52-36.24L129.52-36.24L129.52-36.24Q127.20-31.92 125.60-27.32L125.60-27.32L125.60-27.32Q124.00-22.72 123.68-18L123.68-18L123.68-18Q123.28-12.80 124.20-11.20L124.20-11.20L124.20-11.20Q125.12-9.60 126.48-10.28L126.48-10.28L126.48-10.28Q127.84-10.96 129.40-13.24L129.40-13.24L129.40-13.24Q130.96-15.52 131.92-18.16L131.92-18.16L131.92-18.16Q132.80-20.56 133.80-23.12L133.80-23.12L133.80-23.12Q134.80-25.68 135.64-28.28L135.64-28.28L135.64-28.28Q136.48-30.88 136.92-33.36L136.92-33.36L136.92-33.36Q137.36-35.84 137.12-38L137.12-38L137.12-38Q137.12-38.40 137.28-38.40L137.28-38.40L137.28-38.40Q137.36-38.40 137.36-38.32L137.36-38.32L137.36-38.32Q137.36-38.16 137.44-38.16L137.44-38.16L137.44-38.16Q137.52-38.08 137.52-38L137.52-38L137.52-38Q138.80-35.28 138.68-32.48L138.68-32.48L138.68-32.48Q138.56-29.68 137.72-26.80L137.72-26.80L137.72-26.80Q136.88-23.92 135.72-20.92L135.72-20.92L135.72-20.92Q134.56-17.92 133.76-14.88L133.76-14.88L133.76-14.88Q133.28-12.96 133.04-10.84L133.04-10.84L133.04-10.84Q132.80-8.72 132.96-6.64L132.96-6.64L132.96-6.64Q133.12-4.56 133.84-2.68L133.84-2.68L133.84-2.68Q134.56-0.80 135.92 0.48L135.92 0.48L135.92 0.48Q136.08 0.64 136.08 0.72L136.08 0.72L136.08 0.72Q136.08 0.88 135.88 0.84L135.88 0.84L135.88 0.84Q135.68 0.80 135.52 0.72L135.52 0.72L135.52 0.72Q134.00 0.16 132.88-1.12L132.88-1.12L132.88-1.12Q131.76-2.40 131.12-4.16" fill="#ffffff" stroke="none" stroke-width="none" transform="translate(-87.41448974609375,21.585558842250283)" style="fill: rgb(255, 180, 6);"></path></g><g class="path" style="transform: matrix(1, 0, 0, 1, 0, 0); transform-origin: 75.2812px -3.94016px; animation: 4.16667s linear -1.04167s infinite normal forwards running tremble-2e6f09e0-7814-436c-bf3e-9b68dd88d6de;"><path d="M170.48-32.64L170.48-32.64L170.48-32.64Q171.12-31.84 171.48-30.64L171.48-30.64L171.48-30.64Q171.84-29.44 171.76-28.04L171.76-28.04L171.76-28.04Q171.68-26.64 171.12-25.12L171.12-25.12L171.12-25.12Q170.56-23.60 169.36-22.16L169.36-22.16L169.36-22.16Q167.04-19.44 164.28-17.96L164.28-17.96L164.28-17.96Q161.52-16.48 159.28-16.48L159.28-16.48L159.28-16.48Q157.92-16.48 159.28-16.96L159.28-16.96L159.28-16.96Q160-17.20 161-17.72L161-17.72L161-17.72Q162-18.24 163.12-19L163.12-19L163.12-19Q164.24-19.76 165.40-20.80L165.40-20.80L165.40-20.80Q166.56-21.84 167.52-23.20L167.52-23.20L167.52-23.20Q169.12-25.44 169.40-27.56L169.40-27.56L169.40-27.56Q169.68-29.68 168.56-30.80L168.56-30.80L168.56-30.80Q167.60-31.76 166.32-31.88L166.32-31.88L166.32-31.88Q165.04-32 162.48-30.48L162.48-30.48L162.48-30.48Q160.16-29.12 158.32-27.12L158.32-27.12L158.32-27.12Q156.48-25.12 154.88-22.88L154.88-22.88L154.88-22.88Q154-21.76 153.72-21.76L153.72-21.76L153.72-21.76Q153.44-21.76 153.92-23.20L153.92-23.20L153.92-23.20Q154.88-26 156.60-28.40L156.60-28.40L156.60-28.40Q158.32-30.80 160.72-32.48L160.72-32.48L160.72-32.48Q162.48-33.68 163.96-34.16L163.96-34.16L163.96-34.16Q165.44-34.64 166.68-34.56L166.68-34.56L166.68-34.56Q167.92-34.48 168.88-33.96L168.88-33.96L168.88-33.96Q169.84-33.44 170.48-32.64" fill="#ffffff" stroke="none" stroke-width="none" transform="translate(-87.41448974609375,21.585558842250283)" style="fill: rgb(255, 255, 255);"></path></g><g class="path" style="transform: matrix(1, 0, 0, 1, 0, 0); transform-origin: 73.4972px 2.82822px; animation: 4.16667s linear -0.892857s infinite normal forwards running tremble-2e6f09e0-7814-436c-bf3e-9b68dd88d6de;"><path d="M174.80-27.04L174.80-27.04L174.80-27.04Q174.48-25.12 173.80-23.80L173.80-23.80L173.80-23.80Q173.12-22.48 172.28-21.56L172.28-21.56L172.28-21.56Q171.44-20.64 170.60-20.08L170.60-20.08L170.60-20.08Q169.76-19.52 169.12-19.04L169.12-19.04L169.12-19.04Q168.80-18.80 168.64-18.96L168.64-18.96L168.64-18.96Q168.48-19.12 168.88-19.52L168.88-19.52L168.88-19.52Q170.32-20.72 171.80-22.76L171.80-22.76L171.80-22.76Q173.28-24.80 173.36-27.28L173.36-27.28L173.36-27.28Q173.36-31.52 171.28-33.76L171.28-33.76L171.28-33.76Q169.20-36 166.08-35.72L166.08-35.72L166.08-35.72Q162.96-35.44 159.60-33.28L159.60-33.28L159.60-33.28Q157.44-31.92 155.80-30.12L155.80-30.12L155.80-30.12Q154.16-28.32 152.96-26.28L152.96-26.28L152.96-26.28Q151.76-24.24 151-22.08L151-22.08L151-22.08Q150.24-19.92 149.92-17.76L149.92-17.76L149.92-17.76Q149.60-15.68 149.32-13.28L149.32-13.28L149.32-13.28Q149.04-10.88 149.32-8.56L149.32-8.56L149.32-8.56Q149.60-6.24 150.80-4.12L150.80-4.12L150.80-4.12Q152-2 154.56-0.48L154.56-0.48L154.56-0.48Q154.96-0.24 155.40-0.16L155.40-0.16L155.40-0.16Q155.84-0.08 155.84 0L155.84 0L155.84 0Q155.84 0.16 155.44 0.20L155.44 0.20L155.44 0.20Q155.04 0.24 154.56 0.08L154.56 0.08L154.56 0.08Q152.56-0.32 151.16-1.56L151.16-1.56L151.16-1.56Q149.76-2.80 148.88-4.40L148.88-4.40L148.88-4.40Q148-6 147.52-7.76L147.52-7.76L147.52-7.76Q147.04-9.52 146.96-10.96L146.96-10.96L146.96-10.96Q146.48-17.28 148.72-23.44L148.72-23.44L148.72-23.44Q149.20-24.72 149.96-26.32L149.96-26.32L149.96-26.32Q150.72-27.92 151.84-29.56L151.84-29.56L151.84-29.56Q152.96-31.20 154.48-32.76L154.48-32.76L154.48-32.76Q156-34.32 157.92-35.52L157.92-35.52L157.92-35.52Q159.76-36.64 161.76-37.20L161.76-37.20L161.76-37.20Q163.76-37.76 165.76-37.72L165.76-37.72L165.76-37.72Q167.76-37.68 169.52-37L169.52-37L169.52-37Q171.28-36.32 172.64-34.96L172.64-34.96L172.64-34.96Q173.84-33.68 174.52-31.68L174.52-31.68L174.52-31.68Q175.20-29.68 174.80-27.04" fill="#ffffff" stroke="none" stroke-width="none" transform="translate(-87.41448974609375,21.585558842250283)" style="fill: rgb(255, 180, 6);"></path></g><g class="path" style="transform: matrix(1, 0, 0, 1, 0, 0); transform-origin: 73.8154px 4.83292px; animation: 4.16667s linear -0.744048s infinite normal forwards running tremble-2e6f09e0-7814-436c-bf3e-9b68dd88d6de;"><path d="M167.52-29.92L167.52-29.92L167.52-29.92Q168.48-28.80 167.76-26.44L167.76-26.44L167.76-26.44Q167.04-24.08 164.40-21.68L164.40-21.68L164.40-21.68Q162.96-20.32 161.60-19.48L161.60-19.48L161.60-19.48Q160.24-18.64 158.16-18L158.16-18L158.16-18Q157.28-14.96 157.04-12L157.04-12L157.04-12Q156.80-9.04 157.20-7.20L157.20-7.20L157.20-7.20Q157.28-6.48 157.72-5.80L157.72-5.80L157.72-5.80Q158.16-5.12 159-4.76L159-4.76L159-4.76Q159.84-4.40 161.20-4.48L161.20-4.48L161.20-4.48Q162.56-4.56 164.56-5.36L164.56-5.36L164.56-5.36Q165.12-5.60 165.24-5.48L165.24-5.48L165.24-5.48Q165.36-5.36 164.72-4.96L164.72-4.96L164.72-4.96Q163.28-3.84 161.68-3.40L161.68-3.40L161.68-3.40Q160.08-2.96 158.68-3.12L158.68-3.12L158.68-3.12Q157.28-3.28 156.28-4.08L156.28-4.08L156.28-4.08Q155.28-4.88 154.96-6.24L154.96-6.24L154.96-6.24Q154.32-9.04 154.40-12.08L154.40-12.08L154.40-12.08Q154.48-15.12 155.32-18.08L155.32-18.08L155.32-18.08Q156.16-21.04 157.72-23.64L157.72-23.64L157.72-23.64Q159.28-26.24 161.60-28.08L161.60-28.08L161.60-28.08Q165.92-31.52 167.52-29.92zM165.60-27.76L165.60-27.76L165.60-27.76Q165.28-28.40 163.28-26.72L163.28-26.72L163.28-26.72Q161.44-25.28 160.36-23.40L160.36-23.40L160.36-23.40Q159.28-21.52 158.48-19.28L158.48-19.28L158.48-19.28Q160-20 161.28-20.92L161.28-20.92L161.28-20.92Q162.56-21.84 163.68-22.72L163.68-22.72L163.68-22.72Q164.88-23.76 165.44-25.44L165.44-25.44L165.44-25.44Q166-27.12 165.60-27.76" fill="#ffffff" stroke="none" stroke-width="none" transform="translate(-87.41448974609375,21.585558842250283)" style="fill: rgb(255, 255, 255);"></path></g><g class="path" style="transform: matrix(1, 0, 0, 1, 0, 0); transform-origin: 72.1221px 18.7209px; animation: 4.16667s linear -0.595238s infinite normal forwards running tremble-2e6f09e0-7814-436c-bf3e-9b68dd88d6de;"><path d="M166.72-4.40L166.72-4.40L166.72-4.40Q166.16-3.60 165.32-2.84L165.32-2.84L165.32-2.84Q164.48-2.08 163.40-1.48L163.40-1.48L163.40-1.48Q162.32-0.88 161.16-0.48L161.16-0.48L161.16-0.48Q160-0.08 158.80-0.08L158.80-0.08L158.80-0.08Q156.72-0.08 154.92-1L154.92-1L154.92-1Q153.12-1.92 152.16-4.72L152.16-4.72L152.16-4.72Q152-5.04 152-5.32L152-5.32L152-5.32Q152-5.60 152.16-5.60L152.16-5.60L152.16-5.60Q152.48-5.76 152.80-5.40L152.80-5.40L152.80-5.40Q153.12-5.04 153.44-4.64L153.44-4.64L153.44-4.64Q154.32-3.60 155.72-2.80L155.72-2.80L155.72-2.80Q157.12-2 158.40-2L158.40-2L158.40-2Q160.80-2 162.56-2.72L162.56-2.72L162.56-2.72Q164.32-3.44 165.92-4.64L165.92-4.64L165.92-4.64Q166.32-4.88 166.84-5.12L166.84-5.12L166.84-5.12Q167.36-5.36 166.72-4.40" fill="#ffffff" stroke="none" stroke-width="none" transform="translate(-87.41448974609375,21.585558842250283)" style="fill: rgb(255, 180, 6);"></path></g><g class="path" style="transform: matrix(1, 0, 0, 1, 0, 0); transform-origin: 98.4555px -18.4344px; animation: 4.16667s linear -0.446429s infinite normal forwards running tremble-2e6f09e0-7814-436c-bf3e-9b68dd88d6de;"><path d="M189.60-41.68L189.60-41.68L189.60-41.68Q190.08-43.44 190.24-45.96L190.24-45.96L190.24-45.96Q190.40-48.48 190.24-51L190.24-51L190.24-51Q190.08-53.52 189.48-55.76L189.48-55.76L189.48-55.76Q188.88-58 187.68-59.20L187.68-59.20L187.68-59.20Q187.20-59.68 186.92-59.52L186.92-59.52L186.92-59.52Q186.64-59.36 187.04-58.72L187.04-58.72L187.04-58.72Q187.84-57.28 187.80-54.28L187.80-54.28L187.80-54.28Q187.76-51.28 187.28-47.76L187.28-47.76L187.28-47.76Q186.80-44.24 186-40.72L186-40.72L186-40.72Q185.20-37.20 184.40-34.56L184.40-34.56L184.40-34.56Q184-33.44 183.60-31.76L183.60-31.76L183.60-31.76Q183.20-30.08 182.76-28.36L182.76-28.36L182.76-28.36Q182.32-26.64 182-25L182-25L182-25Q181.68-23.36 181.52-22.24L181.52-22.24L181.52-22.24Q181.52-22 181.44-21.32L181.44-21.32L181.44-21.32Q181.36-20.64 181.60-20.48L181.60-20.48L181.60-20.48Q181.76-20.48 182.08-21.16L182.08-21.16L182.08-21.16Q182.40-21.84 182.48-22L182.48-22L182.48-22Q184.40-26.48 186.40-31.56L186.40-31.56L186.40-31.56Q188.40-36.64 189.60-41.68" fill="#ffffff" stroke="none" stroke-width="none" transform="translate(-87.41448974609375,21.585558842250283)" style="fill: rgb(255, 255, 255);"></path></g><g class="path" style="transform: matrix(1, 0, 0, 1, 0, 0); transform-origin: 100.621px -7.48717px; animation: 4.16667s linear -0.297619s infinite normal forwards running tremble-2e6f09e0-7814-436c-bf3e-9b68dd88d6de;"><path d="M187.76-22.16L187.76-22.16L187.76-22.16Q188.16-23.60 188.88-25.92L188.88-25.92L188.88-25.92Q189.60-28.24 190.32-31L190.32-31L190.32-31Q191.04-33.76 191.72-36.76L191.72-36.76L191.72-36.76Q192.40-39.76 192.76-42.60L192.76-42.60L192.76-42.60Q193.12-45.44 193-47.84L193-47.84L193-47.84Q192.88-50.24 192.16-51.76L192.16-51.76L192.16-51.76Q192.08-52 191.84-52.24L191.84-52.24L191.84-52.24Q191.60-52.48 191.60-51.84L191.60-51.84L191.60-51.84Q191.76-46.72 190.56-41.60L190.56-41.60L190.56-41.60Q189.36-36.48 188-32.32L188-32.32L188-32.32Q186.96-29.04 185.88-25.76L185.88-25.76L185.88-25.76Q184.80-22.48 184.04-19.24L184.04-19.24L184.04-19.24Q183.28-16 183.08-12.88L183.08-12.88L183.08-12.88Q182.88-9.76 183.68-6.88L183.68-6.88L183.68-6.88Q184-5.84 184.24-5.84L184.24-5.84L184.24-5.84Q184.48-5.92 184.48-6.88L184.48-6.88L184.48-6.88Q184.48-8.32 184.76-10.12L184.76-10.12L184.76-10.12Q185.04-11.92 185.52-13.92L185.52-13.92L185.52-13.92Q186-15.92 186.56-18.04L186.56-18.04L186.56-18.04Q187.12-20.16 187.76-22.16" fill="#ffffff" stroke="none" stroke-width="none" transform="translate(-87.41448974609375,21.585558842250283)" style="fill: rgb(255, 180, 6);"></path></g><g class="path" style="transform: matrix(1, 0, 0, 1, 0, 0); transform-origin: 93.7132px -9.01888px; animation: 4.16667s linear -0.14881s infinite normal forwards running tremble-2e6f09e0-7814-436c-bf3e-9b68dd88d6de;"><path d="M186.24-0.24L186.24-0.24L186.24-0.24Q183.44-0.56 181.24-3.04L181.24-3.04L181.24-3.04Q179.04-5.52 178.32-9.12L178.32-9.12L178.32-9.12Q177.60-12.56 177.96-16.12L177.96-16.12L177.96-16.12Q178.32-19.68 179.20-22.80L179.20-22.80L179.20-22.80Q180.48-27.60 182.24-32.68L182.24-32.68L182.24-32.68Q184-37.76 185.24-42.72L185.24-42.72L185.24-42.72Q186.48-47.68 186.64-52.28L186.64-52.28L186.64-52.28Q186.80-56.88 185.04-60.72L185.04-60.72L185.04-60.72Q184.88-60.80 184.80-61.08L184.80-61.08L184.80-61.08Q184.72-61.36 184.56-61.28L184.56-61.28L184.56-61.28Q184.32-61.28 184.48-60.72L184.48-60.72L184.48-60.72Q185.12-57.04 184.56-52.76L184.56-52.76L184.56-52.76Q184-48.48 182.76-43.88L182.76-43.88L182.76-43.88Q181.52-39.28 179.96-34.40L179.96-34.40L179.96-34.40Q178.40-29.52 177.04-24.64L177.04-24.64L177.04-24.64Q176-21.04 175.64-17L175.64-17L175.64-17Q175.28-12.96 176.16-8.88L176.16-8.88L176.16-8.88Q176.64-6.80 177.64-5.12L177.64-5.12L177.64-5.12Q178.64-3.44 180-2.28L180-2.28L180-2.28Q181.36-1.12 182.96-0.48L182.96-0.48L182.96-0.48Q184.56 0.16 186.24 0.08L186.24 0.08L186.48 0.08L186.48 0.08Q186.56 0.08 186.72 0L186.72 0L186.72 0Q186.72-0.24 186.24-0.24" fill="#ffffff" stroke="none" stroke-width="none" transform="translate(-87.41448974609375,21.585558842250283)" style="fill: rgb(255, 255, 255);"></path></g><g class="path" style="transform: matrix(1, 0, 0, 1, 0, 0); transform-origin: 96.7647px 15.0656px; animation: 4.16667s linear 0s infinite normal forwards running tremble-2e6f09e0-7814-436c-bf3e-9b68dd88d6de;"><path d="M183.84-4.24L183.84-4.24L183.84-4.24Q182.40-5.92 181.52-8.56L181.52-8.56L181.52-8.56Q181.44-8.80 181.28-9.32L181.28-9.32L181.28-9.32Q181.12-9.84 180.96-10.36L180.96-10.36L180.96-10.36Q180.80-10.88 180.64-11.32L180.64-11.32L180.64-11.32Q180.48-11.76 180.40-11.76L180.40-11.76L180.40-11.76Q180.08-11.76 180.08-10.72L180.08-10.72L180.08-10.72Q180.08-9.68 180.32-8.32L180.32-8.32L180.32-8.32Q180.56-6.96 181.04-5.56L181.04-5.56L181.04-5.56Q181.52-4.16 182.16-3.36L182.16-3.36L182.16-3.36Q183.44-1.92 184.76-1.60L184.76-1.60L184.76-1.60Q186.08-1.28 187.44-1.28L187.44-1.28L187.44-1.28Q187.92-1.28 188.20-1.56L188.20-1.56L188.20-1.56Q188.48-1.84 187.76-2L187.76-2L187.76-2Q185.44-2.24 183.84-4.24" fill="#ffffff" stroke="none" stroke-width="none" transform="translate(-87.41448974609375,21.585558842250283)" style="fill: rgb(255, 180, 6);"></path></g></g>
</g>
</g>
<style id="tremble-2e6f09e0-7814-436c-bf3e-9b68dd88d6de" data-anikit="">@keyframes tremble-2e6f09e0-7814-436c-bf3e-9b68dd88d6de {
  0% { transform: translate(0px,0px) rotate(0deg) scale(1) }
  3.33333% { transform: translate(-0.18923px,1.45485px) rotate(0deg) scale(1) }
  6.66667% { transform: translate(-0.84296px,-1.32524px) rotate(0deg) scale(1) }
  10% { transform: translate(0.67971px,1.00422px) rotate(0deg) scale(1) }
  13.33333% { transform: translate(-0.5056px,0.83616px) rotate(0deg) scale(1) }
  16.66667% { transform: translate(1.31368px,-0.51401px) rotate(0deg) scale(1) }
  20% { transform: translate(-1.21184px,1.49193px) rotate(0deg) scale(1) }
  23.33333% { transform: translate(1.09065px,-0.21259px) rotate(0deg) scale(1) }
  26.66667% { transform: translate(-1.49916px,0.56159px) rotate(0deg) scale(1) }
  30% { transform: translate(1.48086px,1.21228px) rotate(0deg) scale(1) }
  33.33333% { transform: translate(-1.43889px,-1.152px) rotate(0deg) scale(1) }
  36.66667% { transform: translate(1.35914px,1.34835px) rotate(0deg) scale(1) }
  40% { transform: translate(-1.42834px,0.3091px) rotate(0deg) scale(1) }
  43.33333% { transform: translate(1.47472px,-1.49889px) rotate(0deg) scale(1) }
  46.66667% { transform: translate(-0.92402px,1.4416px) rotate(0deg) scale(1) }
  50% { transform: translate(1.0657px,-0.75306px) rotate(0deg) scale(1) }
  53.33333% { transform: translate(-1.19035px,-1.07484px) rotate(0deg) scale(1) }
  56.66667% { transform: translate(0.28828px,0.79337px) rotate(0deg) scale(1) }
  60% { transform: translate(-0.47167px,-1.42789px) rotate(0deg) scale(1) }
  63.33333% { transform: translate(0.64753px,-0.09795px) rotate(0deg) scale(1) }
  66.66667% { transform: translate(0.41006px,-0.26292px) rotate(0deg) scale(1) }
  70% { transform: translate(-0.22477px,-1.3683px) rotate(0deg) scale(1) }
  73.33333% { transform: translate(0.03588px,0.92931px) rotate(0deg) scale(1) }
  76.66667% { transform: translate(-1.01937px,-1.18398px) rotate(0deg) scale(1) }
  80% { transform: translate(0.8724px,-0.60494px) rotate(0deg) scale(1) }
  83.33333% { transform: translate(-0.71151px,1.4786px) rotate(0deg) scale(1) }
  86.66667% { transform: translate(1.40734px,-1.49607px) rotate(0deg) scale(1) }
  90% { transform: translate(-1.33062px,0.46957px) rotate(0deg) scale(1) }
  93.33333% { transform: translate(1.23264px,1.26738px) rotate(0deg) scale(1) }
  96.66667% { transform: translate(-1.48975px,-1.03867px) rotate(0deg) scale(1) }
  100% { transform: translate(0,0) rotate(0) scale(1) }
}</style></svg>