<?xml version="1.0" encoding="utf-8"?>
<svg xmlns="http://www.w3.org/2000/svg" style="margin: auto; background: none; display: block; shape-rendering: auto;" width="280" height="250" preserveAspectRatio="xMidYMid">
<style type="text/css">
  text {
    text-anchor: middle; font-size: 80px; opacity: 0;
  }
</style>
<g style="transform-origin:140px 125px;transform:scale(1)">
<g transform="translate(140,125)">
  <g transform="translate(0,0)"><g class="path" style="transform: scale(0.91); transform-origin: -105.88px 3.18857px; animation: 1s linear -0.565714s infinite normal forwards running breath-ea793470-f403-4b77-a38d-8c05c3f9b7f2;"><path d="M24.72 15.52L24.72 15.52L24.72 15.52Q33.12 15.52 37.80 12.08L37.80 12.08L37.80 12.08Q42.48 8.64 42.48 2.96L42.48 2.96L42.48 2.96Q42.48-1.12 40.44-4.24L40.44-4.24L40.44-4.24Q38.40-7.36 35.36-9.40L35.36-9.40L35.36-9.40Q32.32-11.44 29.16-13.44L29.16-13.44L29.16-13.44Q26-15.44 23.28-18.48L23.28-18.48L23.28-18.48Q20.56-21.52 19.68-25.36L19.68-25.36L19.68-25.36Q12.40-27.52 10.08-34.40L10.08-34.40L10.08-34.40Q9.20-37.04 9.20-39.92L9.20-39.92L9.20-39.92Q9.20-42.80 10.08-45.92L10.08-45.92L10.08-45.92Q11.92-52.08 16.08-55.20L16.08-55.20L16.96-53.92L16.96-53.92Q13.20-51.20 11.52-45.44L11.52-45.44L11.52-45.44Q10.72-42.56 10.72-39.92L10.72-39.92L10.72-39.92Q10.72-37.28 11.52-34.88L11.52-34.88L11.52-34.88Q13.44-29.04 19.44-27.04L19.44-27.04L19.44-27.04Q19.28-27.92 19.28-29.76L19.28-29.76L19.28-29.76Q19.28-40.24 26.88-46.72L26.88-46.72L26.88-46.72Q34.48-53.20 45.44-53.20L45.44-53.20L45.44-53.20Q52.64-53.20 56.96-49.28L56.96-49.28L56.96-49.28Q60.64-45.84 60.64-40.84L60.64-40.84L60.64-40.84Q60.64-35.84 57.28-32.20L57.28-32.20L57.28-32.20Q53.92-28.56 48.24-28.56L48.24-28.56L48.24-28.56Q45.12-28.56 43.12-29.76L43.12-29.76L43.12-29.76Q39.04-26.64 33.44-25.28L33.44-25.28L33.44-25.28Q35.04-23.76 40.92-19.68L40.92-19.68L40.92-19.68Q46.80-15.60 49.72-11.88L49.72-11.88L49.72-11.88Q52.64-8.16 52.64-3.20L52.64-3.20L52.64-3.20Q52.64 5.92 45.56 11.60L45.56 11.60L45.56 11.60Q38.48 17.28 27.64 17.28L27.64 17.28L27.64 17.28Q16.80 17.28 11.28 12.48L11.28 12.48L11.28 12.48Q6.48 8.40 6.48 2.52L6.48 2.52L6.48 2.52Q6.48-3.36 10.28-7.56L10.28-7.56L10.28-7.56Q14.08-11.76 19.76-11.76L19.76-11.76L19.76-11.76Q25.44-11.76 28.16-9.24L28.16-9.24L28.16-9.24Q30.88-6.72 30.88-3.12L30.88-3.12L30.88-3.12Q30.88 0.48 28.68 3.28L28.68 3.28L28.68 3.28Q26.48 6.08 22.96 6.08L22.96 6.08L22.96 6.08Q19.44 6.08 17.36 3.84L17.36 3.84L17.36 3.84Q15.44 1.92 15.20-0.96L15.20-0.96L15.20-0.96Q15.12-1.76 15.20-1.92L15.20-1.92L16.72-1.84L16.72-1.84Q16.64 0.96 18.48 2.80L18.48 2.80L18.48 2.80Q20 4.48 22.92 4.48L22.92 4.48L22.92 4.48Q25.84 4.48 27.60 2.20L27.60 2.20L27.60 2.20Q29.36-0.08 29.36-3.08L29.36-3.08L29.36-3.08Q29.36-6.08 27.28-7.92L27.28-7.92L27.28-7.92Q24.96-10.24 19.84-10.24L19.84-10.24L19.84-10.24Q14.72-10.24 11.36-6.52L11.36-6.52L11.36-6.52Q8-2.80 8 2.44L8 2.44L8 2.44Q8 7.68 12.32 11.36L12.32 11.36L12.32 11.36Q14.88 13.60 17.56 14.56L17.56 14.56L17.56 14.56Q20.24 15.52 24.72 15.52zM38.32-39.52L38.32-39.52L38.32-39.52Q38.32-43.04 40.12-45.36L40.12-45.36L40.12-45.36Q41.92-47.68 45.04-47.68L45.04-47.68L45.04-47.68Q50.40-47.68 50.40-41.80L50.40-41.80L50.40-41.80Q50.40-35.92 44.56-30.72L44.56-30.72L44.56-30.72Q46.32-29.92 48.24-29.92L48.24-29.92L48.24-29.92Q53.20-29.92 56.16-33.16L56.16-33.16L56.16-33.16Q59.12-36.40 59.12-40.76L59.12-40.76L59.12-40.76Q59.12-45.12 55.92-48.16L55.92-48.16L55.92-48.16Q52-51.68 45.60-51.68L45.60-51.68L45.60-51.68Q39.20-51.68 34.72-48.56L34.72-48.56L34.72-48.56Q27.76-43.60 27.76-35.76L27.76-35.76L27.76-35.76Q27.76-29.28 32.08-26.32L32.08-26.32L32.08-26.32Q37.44-27.52 42-30.64L42-30.64L42-30.64Q38.32-33.92 38.32-39.52zM44.96-46.24L44.96-46.24L44.96-46.24Q42.56-46.24 41.24-44.40L41.24-44.40L41.24-44.40Q39.92-42.56 39.92-39.52L39.92-39.52L39.92-39.52Q39.92-34.32 43.20-31.60L43.20-31.60L43.20-31.60Q45.60-33.28 47.20-36.16L47.20-36.16L47.20-36.16Q48.80-39.04 48.80-41.84L48.80-41.84L48.80-41.84Q48.80-46.24 44.96-46.24" fill="#ffcb00" stroke="none" stroke-width="none" transform="translate(-139.44000244140625,22.148570600237168)" style="fill: rgb(255, 203, 0);"></path></g><g class="path" style="transform: scale(0.91); transform-origin: -62.24px 6.94857px; animation: 1s linear -0.471429s infinite normal forwards running breath-ea793470-f403-4b77-a38d-8c05c3f9b7f2;"><path d="M74.08 0.72L74.08 0.72Q67.92 0.72 64.72-2.36L64.72-2.36L64.72-2.36Q61.52-5.44 61.52-10.12L61.52-10.12L61.52-10.12Q61.52-14.80 62.36-18.12L62.36-18.12L62.36-18.12Q63.20-21.44 65.12-24.52L65.12-24.52L65.12-24.52Q67.04-27.60 70.92-29.36L70.92-29.36L70.92-29.36Q74.80-31.12 80.60-31.12L80.60-31.12L80.60-31.12Q86.40-31.12 89.64-28.04L89.64-28.04L89.64-28.04Q92.88-24.96 92.88-19.60L92.88-19.60L92.88-19.60Q92.88-10.48 88.04-4.88L88.04-4.88L88.04-4.88Q83.20 0.72 74.08 0.72L74.08 0.72zM70.56-7.52L70.56-7.52L70.56-7.52Q70.56-1.12 74.28-1.12L74.28-1.12L74.28-1.12Q78-1.12 80.92-7.56L80.92-7.56L80.92-7.56Q83.84-14 83.84-22.88L83.84-22.88L83.84-22.88Q83.84-29.60 80.20-29.60L80.20-29.60L80.20-29.60Q76.56-29.60 73.56-23.48L73.56-23.48L73.56-23.48Q70.56-17.36 70.56-7.52" fill="#ffcb00" stroke="none" stroke-width="none" transform="translate(-139.44000244140625,22.148570600237168)" style="fill: rgb(255, 203, 0);"></path></g><g class="path" style="transform: scale(0.91); transform-origin: -31.08px -3.41143px; animation: 1s linear -0.377143s infinite normal forwards running breath-ea793470-f403-4b77-a38d-8c05c3f9b7f2;"><path d="M111.44-2.88L111.44-2.88L111.44-2.88Q110.40-1.52 108.60-0.40L108.60-0.40L108.60-0.40Q106.80 0.72 103.92 0.72L103.92 0.72L103.92 0.72Q101.04 0.72 99.04-1.12L99.04-1.12L99.04-1.12Q97.04-2.96 97.04-6.32L97.04-6.32L97.04-6.32Q97.04-6.96 97.20-8.40L97.20-8.40L102.40-37.20L102.40-37.20Q103.84-45.12 106.36-48.48L106.36-48.48L106.36-48.48Q108.88-51.84 113.04-51.84L113.04-51.84L113.04-51.84Q115.92-51.84 117.80-49.68L117.80-49.68L117.80-49.68Q119.68-47.52 119.68-43.12L119.68-43.12L119.68-43.12Q119.68-38.72 116.28-30.56L116.28-30.56L116.28-30.56Q112.88-22.40 112.88-18.64L112.88-18.64L111.44-18.64L111.44-18.64Q111.44-22.88 114.80-30.76L114.80-30.76L114.80-30.76Q118.16-38.64 118.16-43.36L118.16-43.36L118.16-43.36Q118.16-46.24 116.84-48.32L116.84-48.32L116.84-48.32Q115.52-50.40 113.60-50.40L113.60-50.40L113.60-50.40Q113.52-48.32 110.84-31.72L110.84-31.72L110.84-31.72Q108.16-15.12 105.52-0.88L105.52-0.88L105.52-0.88Q107.76-0.88 109.68-3.20L109.68-3.20L109.68-3.20Q111.60-5.52 112.40-7.84L112.40-7.84L113.28-10.24L114.72-9.60L114.72-9.60Q114.48-8.48 113.48-6.36L113.48-6.36L113.48-6.36Q112.48-4.24 111.44-2.88" fill="#ffcb00" stroke="none" stroke-width="none" transform="translate(-139.44000244140625,22.148570600237168)" style="fill: rgb(255, 203, 0);"></path></g><g class="path" style="transform: scale(0.91); transform-origin: -4.72001px 6.94857px; animation: 1s linear -0.282857s infinite normal forwards running breath-ea793470-f403-4b77-a38d-8c05c3f9b7f2;"><path d="M131.60 0.72L131.60 0.72Q125.44 0.72 122.24-2.36L122.24-2.36L122.24-2.36Q119.04-5.44 119.04-10.12L119.04-10.12L119.04-10.12Q119.04-14.80 119.88-18.12L119.88-18.12L119.88-18.12Q120.72-21.44 122.64-24.52L122.64-24.52L122.64-24.52Q124.56-27.60 128.44-29.36L128.44-29.36L128.44-29.36Q132.32-31.12 138.12-31.12L138.12-31.12L138.12-31.12Q143.92-31.12 147.16-28.04L147.16-28.04L147.16-28.04Q150.40-24.96 150.40-19.60L150.40-19.60L150.40-19.60Q150.40-10.48 145.56-4.88L145.56-4.88L145.56-4.88Q140.72 0.72 131.60 0.72L131.60 0.72zM128.08-7.52L128.08-7.52L128.08-7.52Q128.08-1.12 131.80-1.12L131.80-1.12L131.80-1.12Q135.52-1.12 138.44-7.56L138.44-7.56L138.44-7.56Q141.36-14 141.36-22.88L141.36-22.88L141.36-22.88Q141.36-29.60 137.72-29.60L137.72-29.60L137.72-29.60Q134.08-29.60 131.08-23.48L131.08-23.48L131.08-23.48Q128.08-17.36 128.08-7.52" fill="#ffcb00" stroke="none" stroke-width="none" transform="translate(-139.44000244140625,22.148570600237168)" style="fill: rgb(255, 203, 0);"></path></g><g class="path" style="transform: scale(0.91); transform-origin: 43.04px 6.94857px; animation: 1s linear -0.188571s infinite normal forwards running breath-ea793470-f403-4b77-a38d-8c05c3f9b7f2;"><path d="M184.80-0.88L184.80-0.88L184.80-0.88Q186.72-0.88 188.80-3.12L188.80-3.12L190.00-2.16L190.00-2.16Q189.44-1.04 187.52-0.16L187.52-0.16L187.52-0.16Q185.60 0.72 183.28 0.72L183.28 0.72L183.28 0.72Q176.00 0.72 176.00-5.84L176.00-5.84L176.00-5.84Q176.00-8.64 177.44-15.84L177.44-15.84L177.44-15.84Q178.88-23.04 178.88-25.28L178.88-25.28L178.88-25.28Q178.88-28.72 175.60-28.72L175.60-28.72L175.60-28.72Q170.64-28.72 167.28-16L167.28-16L164.40 0L154.80 0L160.08-29.52L160.08-29.52Q157.68-29.28 156.08-27.28L156.08-27.28L154.88-28.24L154.88-28.24Q157.28-31.12 160.92-31.12L160.92-31.12L160.92-31.12Q164.56-31.12 166.56-29.28L166.56-29.28L166.56-29.28Q168.56-27.44 168.56-24.08L168.56-24.08L168.56-23.84L168.56-23.84Q171.68-31.12 178.00-31.12L178.00-31.12L178.00-31.12Q182.48-31.12 185.08-28.68L185.08-28.68L185.08-28.68Q187.68-26.24 187.92-21.84L187.92-21.84L187.92-21.84Q189.44-26.24 191.76-28.68L191.76-28.68L191.76-28.68Q194.08-31.12 198.48-31.12L198.48-31.12L198.48-31.12Q202.88-31.12 205.52-28.44L205.52-28.44L205.52-28.44Q208.16-25.76 208.16-21.04L208.16-21.04L208.16-21.04Q208.16-18.56 206.64-11.48L206.64-11.48L206.64-11.48Q205.12-4.40 204.96-0.88L204.96-0.88L204.96-0.88Q206.88-0.88 208.96-3.12L208.96-3.12L210.16-2.16L210.16-2.16Q209.60-1.04 207.68-0.16L207.68-0.16L207.68-0.16Q205.76 0.72 203.44 0.72L203.44 0.72L203.44 0.72Q196.16 0.72 196.16-5.84L196.16-5.84L196.16-5.84Q196.16-8.64 197.60-15.84L197.60-15.84L197.60-15.84Q199.04-23.04 199.04-25.28L199.04-25.28L199.04-25.28Q199.04-28.72 195.76-28.72L195.76-28.72L195.76-28.72Q190.00-28.72 186.48-11.60L186.48-11.60L186.48-11.60Q184.96-4.32 184.80-0.88" fill="#ffcb00" stroke="none" stroke-width="none" transform="translate(-139.44000244140625,22.148570600237168)" style="fill: rgb(255, 203, 0);"></path></g><g class="path" style="transform: scale(0.91); transform-origin: 90.16px 6.94857px; animation: 1s linear -0.0942857s infinite normal forwards running breath-ea793470-f403-4b77-a38d-8c05c3f9b7f2;"><path d="M226.48 0.72L226.48 0.72Q220.32 0.72 217.12-2.36L217.12-2.36L217.12-2.36Q213.92-5.44 213.92-10.12L213.92-10.12L213.92-10.12Q213.92-14.80 214.76-18.12L214.76-18.12L214.76-18.12Q215.60-21.44 217.52-24.52L217.52-24.52L217.52-24.52Q219.44-27.60 223.32-29.36L223.32-29.36L223.32-29.36Q227.20-31.12 233.00-31.12L233.00-31.12L233.00-31.12Q238.80-31.12 242.04-28.04L242.04-28.04L242.04-28.04Q245.28-24.96 245.28-19.60L245.28-19.60L245.28-19.60Q245.28-10.48 240.44-4.88L240.44-4.88L240.44-4.88Q235.60 0.72 226.48 0.72L226.48 0.72zM222.96-7.52L222.96-7.52L222.96-7.52Q222.96-1.12 226.68-1.12L226.68-1.12L226.68-1.12Q230.40-1.12 233.32-7.56L233.32-7.56L233.32-7.56Q236.24-14 236.24-22.88L236.24-22.88L236.24-22.88Q236.24-29.60 232.60-29.60L232.60-29.60L232.60-29.60Q228.96-29.60 225.96-23.48L225.96-23.48L225.96-23.48Q222.96-17.36 222.96-7.52" fill="#ffcb00" stroke="none" stroke-width="none" transform="translate(-139.44000244140625,22.148570600237168)" style="fill: rgb(255, 203, 0);"></path></g><g class="path" style="transform: scale(0.91); transform-origin: 127.96px 6.94857px; animation: 1s linear 0s infinite normal forwards running breath-ea793470-f403-4b77-a38d-8c05c3f9b7f2;"><path d="M280.16-0.88L280.16-0.88L280.16-0.88Q282.08-0.88 284.16-3.12L284.16-3.12L285.36-2.16L285.36-2.16Q284.80-1.04 282.88-0.16L282.88-0.16L282.88-0.16Q280.96 0.72 278.64 0.72L278.64 0.72L278.64 0.72Q271.36 0.72 271.36-5.84L271.36-5.84L271.36-5.84Q271.36-8.64 272.80-15.84L272.80-15.84L272.80-15.84Q274.24-23.04 274.24-25.28L274.24-25.28L274.24-25.28Q274.24-28.72 270.96-28.72L270.96-28.72L270.96-28.72Q268.32-28.72 265.88-25.28L265.88-25.28L265.88-25.28Q263.44-21.84 261.84-15.84L261.84-15.84L259.12-0.88L259.12-0.88Q261.60-1.12 263.20-3.12L263.20-3.12L264.40-2.16L264.40-2.16Q262 0.72 258.40 0.72L258.40 0.72L258.40 0.72Q254.80 0.72 252.76-1.12L252.76-1.12L252.76-1.12Q250.72-2.96 250.72-5.92L250.72-5.92L250.72-5.92Q250.72-7.04 252.00-14.72L252.00-14.72L254.64-29.52L254.64-29.52Q252.24-29.28 250.64-27.28L250.64-27.28L249.44-28.24L249.44-28.24Q251.84-31.12 255.48-31.12L255.48-31.12L255.48-31.12Q259.12-31.12 261.12-29.28L261.12-29.28L261.12-29.28Q263.12-27.44 263.12-24.08L263.12-24.08L263.12-23.60L263.12-23.60Q266.40-31.12 273.36-31.12L273.36-31.12L273.36-31.12Q278.08-31.12 280.72-28.44L280.72-28.44L280.72-28.44Q283.36-25.76 283.36-21.04L283.36-21.04L283.36-21.04Q283.36-18.56 281.84-11.48L281.84-11.48L281.84-11.48Q280.32-4.40 280.16-0.88" fill="#ffcb00" stroke="none" stroke-width="none" transform="translate(-139.44000244140625,22.148570600237168)" style="fill: rgb(255, 203, 0);"></path></g></g>
</g>
</g>
<style id="breath-ea793470-f403-4b77-a38d-8c05c3f9b7f2" data-anikit="">@keyframes breath-ea793470-f403-4b77-a38d-8c05c3f9b7f2
{
  0% {
    animation-timing-function: cubic-bezier(0.9647,0.2413,-0.0705,0.7911);
    transform: scale(0.9099999999999999);
  }
  51% {
    animation-timing-function: cubic-bezier(0.9226,0.2631,-0.0308,0.7628);
    transform: scale(1.02994);
  }
  100% {
    transform: scale(0.9099999999999999);
  }
}</style></svg>